<svg width="10" height="15" viewBox="0 0 10 15" fill="none" xmlns="http://www.w3.org/2000/svg">
<g id="Icon">
<path id="Vector" d="M8.57887 9.2908C8.57887 9.45564 8.52424 9.59263 8.41498 9.70177C8.30572 9.81092 8.17528 9.86549 8.02366 9.86549C7.87204 9.86549 7.74383 9.80981 7.63903 9.69843C7.53423 9.58706 7.48183 9.45564 7.48183 9.30417V7.81398L7.57548 5.60877L6.77946 6.51758L2.31774 10.9748C2.19734 11.0862 2.06578 11.1418 1.92308 11.1418C1.77145 11.1418 1.63878 11.0839 1.52507 10.9681C1.41135 10.8523 1.35449 10.7209 1.35449 10.5738C1.35449 10.4268 1.41247 10.2954 1.52841 10.1796L5.99013 5.72237L6.89318 4.94052L4.66566 5.02071H3.19403C3.04241 5.02071 2.91197 4.96836 2.80271 4.86367C2.69345 4.75898 2.63883 4.63313 2.63883 4.48611C2.63883 4.33464 2.69234 4.20433 2.79937 4.09519C2.90639 3.98604 3.04241 3.93147 3.20741 3.93147H7.98352C8.16636 3.93147 8.3113 3.98604 8.41832 4.09519C8.52535 4.20433 8.57887 4.34578 8.57887 4.51952V9.2908Z" fill="#1D1D1F"/>
</g>
</svg>
